<svg xmlns="http://www.w3.org/2000/svg" width="120" height="120" viewBox="0 0 120 120">
    <circle cx="60" cy="60" r="52" fill="#E8956B" opacity="0.18"/>
    <path d="M60 32 C38 32 28 48 28 62 C28 76 38 82 46 78 C50 76 48 70 44 68
             C40 66 40 60 46 58 C70 58 88 48 84 38 C80 32 70 32 60 32 Z" fill="#E8956B"/>
    <circle cx="46" cy="46" r="5" fill="#FAF7F2"/>
    <circle cx="62" cy="42" r="5" fill="#F2C94C"/>
    <circle cx="74" cy="50" r="5" fill="#3F5B4E"/>
    <rect x="70" y="66" width="6" height="26" rx="3" fill="#E8956B" transform="rotate(28 70 66)"/>
    </svg>